<?xml version="1.0" encoding="UTF-8"?>
<!DOCTYPE svg PUBLIC "-//W3C//DTD SVG 1.1//EN" "http://www.w3.org/Graphics/SVG/1.1/DTD/svg11.dtd">
<!-- Creator: CorelDRAW -->
<svg xmlns="http://www.w3.org/2000/svg" xml:space="preserve" width="11in" height="8.5in" style="shape-rendering:geometricPrecision; text-rendering:geometricPrecision; image-rendering:optimizeQuality; fill-rule:evenodd; clip-rule:evenodd"
viewBox="0 0 11 8.5"
 xmlns:xlink="http://www.w3.org/1999/xlink">
 <defs>
  <style type="text/css">
   <![CDATA[
    .fil1 {fill:#355D91}
    .fil2 {fill:#D8642C}
    .fil0 {fill:white}
    .fil3 {fill:white;fill-rule:nonzero}
   ]]>
  </style>
 </defs>
 <g id="White_x0020_Background">
  <metadata id="CorelCorpID_0Corel-Layer"/>
  <rect class="fil0" x="-0.333331" y="-0.416667" width="11.6667" height="9.33333"/>
 </g>
 <g id="Text_x0020_Req_x0020_+_x0020_bottom_x0020_banner">
  <metadata id="CorelCorpID_1Corel-Layer"/>
  <path class="fil1" d="M7.90137 5.01649c0.533563,0.201673 1.56485,0.192795 1.62818,-0.612984l0.156067 0.029752c0.087815,1.15679 -1.25765,1.31838 -1.99431,0.923902l-6.67346 -0.00110236 0.0581417 -0.339571 2.34332 3.93701e-006 0.0484291 -0.268638c-0.0180984,0.00945276 -0.0365354,0.0182638 -0.0552598,0.026437 -0.0413031,0.0180354 -0.0847598,0.0273504 -0.129815,0.0273504 -0.0855866,0 -0.168705,-0.0209528 -0.232217,-0.0811535 -0.0642913,-0.0609409 -0.0862992,-0.144528 -0.0862992,-0.230949 0,-0.0788504 0.00811417,-0.158091 0.0282402,-0.234453 0.0182913,-0.0694016 0.0485827,-0.133965 0.0938346,-0.189933 0.045378,-0.056126 0.103209,-0.0972795 0.169366,-0.125713 0.0770827,-0.033126 0.163335,-0.0441102 0.246665,-0.0441102 0.104673,0 0.206358,0.019626 0.302217,0.0618543l0.000665354 0.000291339 0.0334646 0.0167283 -0.00385039 0.0220118c-0.0654331,0.374157 -0.128283,0.751461 -0.195874,1.12309l0.0367047 -0.102819 4.2258 0zm-6.4633 -0.688724l-0.0785394 0.455213 -0.243571 0 0.20102 -1.174 0.547835 0c0.0424094,0 0.0845866,0.00573622 0.124894,0.0191732 0.0376339,0.0125472 0.0723622,0.0312362 0.102776,0.0567795 0.030878,0.0259409 0.0542559,0.0580984 0.070626,0.094937 0.0181693,0.0408701 0.0250276,0.0855039 0.0250276,0.129996 0,0.106516 -0.0287087,0.206012 -0.102669,0.284984 -0.0635276,0.0678346 -0.144736,0.105094 -0.233657,0.121476l0.138555 0.24248c0.00268898,0.00483465 0.0117087,0.019689 0.0170236,0.0220551 0.0097126,0.00388583 0.0282244,0.00426772 0.0385512,0.00426772l0.0557087 0 -0.0283701 0.18772 -0.0139252 0.00696063c-0.0164764,0.00823622 -0.0338976,0.0145315 -0.0520276,0.0178858 -0.0168583,0.00312992 -0.0340039,0.00451181 -0.0511457,0.00451181 -0.041685,0 -0.0791417,-0.0133386 -0.109992,-0.0415039 -0.0263268,-0.0240433 -0.0488268,-0.0515827 -0.066626,-0.0824252l-0.193917 -0.33335c-0.00367717,-0.00630709 -0.0084685,-0.00992126 -0.0154646,-0.0119921 -0.0110394,-0.00327165 -0.0224252,-0.00517323 -0.0339528,-0.00517323l-0.0981575 0zm0.0391299 -0.226701l0.278618 0c0.0488425,0 0.107854,-0.00737008 0.146213,-0.0407205 0.037122,-0.0322795 0.0449843,-0.0880472 0.0449843,-0.134445 0,-0.0252638 -0.00494094,-0.0523583 -0.027752,-0.0668386 -0.0251024,-0.0159331 -0.0538622,-0.0217756 -0.0832992,-0.0217756 -0.164197,0 -0.326189,3.93701e-005 -0.489799,3.93701e-005l0.170075 0.0213189 -0.0390394 0.242421zm0.867591 0.391276c0.00167323,0.0118268 0.00472047,0.0235039 0.00997244,0.0334567 0.00762598,0.0144488 0.0178661,0.0265 0.0313386,0.0357598 0.0146102,0.0100472 0.0312362,0.0160433 0.0485906,0.0192717 0.0227205,0.00422441 0.0459567,0.00590551 0.0690512,0.00590551 0.0350157,0 0.0694843,-0.00544094 0.102232,-0.0180354 0.032185,-0.012378 0.0598898,-0.0323504 0.0838071,-0.0569764l0.0218937 -0.0262677 0.202303 0.0911457 -0.0391654 0.047878c-0.0478031,0.0586654 -0.10598,0.105429 -0.175752,0.135252 -0.0687165,0.0293622 -0.141583,0.0424803 -0.216154,0.0424803 -0.0501969,0 -0.100957,-0.00491339 -0.149563,-0.0178346 -0.0435354,-0.0115709 -0.0842402,-0.0306614 -0.118925,-0.0596772 -0.0342992,-0.0286772 -0.0594134,-0.0648543 -0.0765748,-0.106039 -0.0197362,-0.0473661 -0.0263504,-0.0999961 -0.0263504,-0.150992 0,-0.0738858 0.0101614,-0.147051 0.0326811,-0.217508 0.0214055,-0.0669606 0.0541535,-0.128555 0.0993583,-0.182449 0.0453386,-0.054063 0.101055,-0.0957087 0.164909,-0.125689 0.0705669,-0.0331378 0.147567,-0.046122 0.22513,-0.046122 0.0410669,0 0.0818976,0.00466535 0.121783,0.0144961 0.0381614,0.00939764 0.0744843,0.0245157 0.106874,0.046937 0.0322047,0.0222953 0.0574331,0.051315 0.0759016,0.0858583 0.0209803,0.039248 0.0283858,0.0838307 0.0283858,0.127945 0,0.0506417 -0.00872441,0.102776 -0.035752,0.146421 -0.0238622,0.038563 -0.0561772,0.0690748 -0.0953661,0.0918898 -0.0414646,0.0241299 -0.0872638,0.0396732 -0.134165,0.0491575 -0.0507677,0.0102677 -0.10224,0.0166024 -0.153811,0.0197638l-0.202634 0.0139724zm0.0313898 -0.217681l0.185441 -0.0116654c0.0222835,-0.00106299 0.0445039,-0.0034685 0.0665433,-0.0068937 0.0198937,-0.00309843 0.0394764,-0.00843307 0.0577992,-0.0168504 0.0148937,-0.00684252 0.0277402,-0.0163386 0.0379882,-0.0291457 0.00985827,-0.0123307 0.0126654,-0.0283661 0.0126654,-0.0437756 0,-0.00879528 -0.00145276,-0.018374 -0.00775197,-0.0249882 -0.00800787,-0.00840551 -0.0178307,-0.0141929 -0.0286772,-0.0181732 -0.0140512,-0.00514961 -0.0287087,-0.00818898 -0.0436063,-0.00950394 -0.0150748,-0.00133071 -0.030311,-0.0022874 -0.0454488,-0.0022874 -0.060126,0 -0.115126,0.0158543 -0.160264,0.0564252 -0.0336929,0.0302874 -0.0582087,0.066126 -0.074689,0.106858zm1.13702 0.206571l0.0654488 -0.359217c-0.0127126,-0.00346457 -0.0256732,-0.00592126 -0.0388346,-0.00738583 -0.0231142,-0.00256299 -0.0463622,-0.00382283 -0.0696181,-0.00382283 -0.0469252,0 -0.0985157,0.00635039 -0.140287,0.0291811 -0.0347047,0.0189764 -0.0631929,0.0446063 -0.0844646,0.0779646 -0.0227402,0.0356614 -0.036878,0.0754331 -0.0447047,0.116866 -0.0090315,0.0478268 -0.0131024,0.0964528 -0.0131024,0.145106 0,0.0295079 0.00666535,0.0583189 0.029315,0.0786535 0.0230039,0.0206575 0.052374,0.0274843 0.0826575,0.0275866 0.0210984,-0.00103937 0.0416732,-0.00583465 0.0614055,-0.0132874 0.0217402,-0.00821654 0.042937,-0.0179055 0.063185,-0.0293228 0.0188465,-0.0106299 0.0370787,-0.0223858 0.0543307,-0.0354528 0.0116417,-0.0088189 0.0232559,-0.0177323 0.0346693,-0.0268701z"/>
 </g>
 <g id="Clock_x0020_element">
  <metadata id="CorelCorpID_2Corel-Layer"/>
  <path class="fil1" d="M6.69077 3.6236c0.0797598,-0.195319 0.230134,-0.363925 0.454232,-0.490138 0.195831,-0.118268 0.451961,-0.184134 0.718142,-0.184134 0.266161,0 0.521421,0.0555551 0.755453,0.153075 0.244043,0.101689 0.513205,0.29474 0.678287,0.474598 0.204811,0.216539 0.345587,0.489256 0.388189,0.757984l1.09709 0.299146 -2.53314 -0.542799c-0.0512008,0.0352008 -0.154248,0.0379213 -0.226516,-0.0204843 -0.104051,-0.0840984 -0.0421535,-0.171709 0.0545197,-0.184311l0.428598 -0.715756 -0.301189 0.74265c0.0176575,0.00696063 0.0315512,0.0185787 0.0408898,0.0289764l1.28563 0.350555c-0.0124134,-0.246094 -0.126291,-0.503555 -0.310543,-0.709925 -0.147843,-0.165598 -0.397614,-0.347894 -0.625228,-0.443957 -0.218539,-0.0922323 -0.457106,-0.14435 -0.70478,-0.143012 -0.247685,0.00131496 -0.483122,0.0656457 -0.658063,0.178228 -0.182634,0.117528 -0.296614,0.273059 -0.348146,0.443531l0.114874 -0.0034252 -0.220193 0.355315 -0.282748 -0.340311 0.194642 -0.00580709z"/>
 </g>
 <g id="Text_x0020_Direct">
  <metadata id="CorelCorpID_3Corel-Layer"/>
  <path class="fil2" d="M3.77172 4.78306l0.209461 -1.174 0.526819 0c0.0638307,0 0.130724,0.0083189 0.189417,0.0346969 0.0491772,0.0221063 0.092315,0.0535079 0.125299,0.0964488 0.0320433,0.0417244 0.0532835,0.0892717 0.0654882,0.140327 0.0127283,0.0532205 0.0184567,0.107768 0.0184567,0.162453 0,0.0860433 -0.0108386,0.171555 -0.0304449,0.255287 -0.019752,0.0843307 -0.0515709,0.164724 -0.0975354,0.238268 -0.0447362,0.0715787 -0.102594,0.130878 -0.173417,0.176776 -0.0770079,0.0498976 -0.164925,0.0697402 -0.255949,0.0697402l-0.577594 0zm1.35079 -1.19323c0.0337205,0 0.0634291,0.0123071 0.0879173,0.035437 0.0249213,0.0235315 0.038252,0.0532047 0.038252,0.0875315 0,0.0344803 -0.0123898,0.0647874 -0.0371457,0.0888465 -0.0245433,0.0238268 -0.0548504,0.0357205 -0.0890236,0.0357205 -0.0341772,0 -0.0644843,-0.0118937 -0.0890276,-0.0357244 -0.024752,-0.0240551 -0.0371457,-0.0543622 -0.0371457,-0.0888425 0,-0.0343228 0.0133346,-0.0639961 0.038252,-0.0875315 0.0244921,-0.023126 0.0542008,-0.035437 0.0879213,-0.035437zm-0.28902 1.19323l0.153256 -0.867846 0.235638 0 -0.153248 0.867846 -0.235646 0zm0.681374 -0.834354c0.015748,-0.0122795 0.0327598,-0.0228976 0.0510157,-0.0317087 0.0353898,-0.0170866 0.0731142,-0.0254252 0.112417,-0.0254252 0.0587244,0 0.11624,0.0220394 0.166886,0.0502835l0.0259409 0.0144646 -0.117087 0.215012 -0.0266496 -0.0154252c-0.0149646,-0.00866142 -0.0312441,-0.0174606 -0.0474803,-0.0234764 -0.0102913,-0.00380709 -0.0210591,-0.00614567 -0.032063,-0.00614567 -0.0229291,0 -0.0433819,0.00608661 -0.0612677,0.0205669 -0.0202008,0.0163543 -0.0367362,0.0361339 -0.0499606,0.0584764 -0.0145551,0.0245945 -0.0257717,0.050878 -0.033937,0.078248 -0.00773228,0.025937 -0.0145866,0.0524606 -0.0192362,0.0791654l-0.0732913 0.415909 -0.235618 0 0.11039 -0.628382c0.0019252,-0.0105787 0.00344882,-0.0212795 0.0044685,-0.0319803 0.000948819,-0.00997638 0.0014685,-0.0199921 0.0014685,-0.0300157 0,-0.0274055 -0.00471654,-0.0546378 -0.0174528,-0.079126l-0.0148504 -0.0285512 0.224295 -0.0973346 0.013248 0.0236535c0.00755118,0.0134764 0.0138189,0.0274213 0.0187638,0.0417913zm1.62192 -0.0541339c0.0557598,0 0.111921,0.00827953 0.16337,0.0305118 0.0522126,0.0225591 0.0953031,0.0601457 0.130831,0.104028l0.0165945 0.0204961 0.0249409 -0.149642 0.0918976 0 0.0293425 -0.155996 0.25028 -0.0668819 -0.0422087 0.222878 0.165244 0 -0.0975945 0.20426 -0.102835 0 -0.0774764 0.429909 -0.000240157 0.000964567c-0.000452756,0.00182283 -0.000704724,0.00367717 -0.000704724,0.00555906 0,0.00374016 0,0.00748031 0,0.0112205 0,0.00350787 0.000401575,0.00854331 0.00262598,0.0114803 0.00549213,0.00726772 0.025189,0.00820866 0.0330906,0.00820866l0.115898 0 -0.033689 0.190921 -0.0192402 0.00452362c-0.0178465,0.00420079 -0.0356811,0.00845669 -0.0535039,0.0127795 -0.0199173,0.00482283 -0.0402598,0.00725197 -0.0607559,0.00725197 -0.0331102,0 -0.066752,-0.0046378 -0.0974252,-0.0175866 -0.0265433,-0.0112087 -0.0505591,-0.0269134 -0.0703268,-0.0479921 -0.0194646,-0.0207638 -0.0333346,-0.0452205 -0.0419606,-0.0723346 -0.00870472,-0.0273465 -0.0126378,-0.0557598 -0.0126378,-0.0844291 0,-0.0164961 0.00194488,-0.0329291 0.00537402,-0.0490551l0.0737283 -0.411421 -0.0909252 0 0.00830315 -0.0498189 -0.167551 0.139984 -0.0193976 -0.0193976c-0.0112165,-0.0112126 -0.0230433,-0.0222323 -0.0356063,-0.031937 -0.00969291,-0.00749213 -0.020185,-0.0137835 -0.0314016,-0.0187165 -0.0114213,-0.00502756 -0.0233858,-0.00855906 -0.0356654,-0.010752 -0.0155354,-0.00277165 -0.0318661,-0.00353937 -0.047622,-0.00353937 -0.0406299,0 -0.0805236,0.00737008 -0.116772,0.0262638 -0.0337638,0.0175866 -0.062811,0.0410472 -0.0866457,0.0707165 -0.0245512,0.030563 -0.0422795,0.0651299 -0.0540906,0.102465 -0.0124961,0.0394724 -0.0186417,0.0801929 -0.0186417,0.121583 0,0.0415787 0.0100394,0.0806614 0.0376102,0.112657 0.0303425,0.0352165 0.0877362,0.0416732 0.131146,0.0416732 0.0316063,0 0.0627953,-0.00542126 0.0929606,-0.0147047 0.0332126,-0.0102205 0.0618228,-0.030685 0.086189,-0.0550472l0.0227717 -0.0227677 0.134626 0.155165 -0.0211496 0.0197402c-0.0473583,0.0442008 -0.101398,0.0804409 -0.162583,0.102465 -0.0559921,0.0201614 -0.114157,0.030626 -0.173654,0.030626 -0.0552283,0 -0.112421,-0.00646063 -0.164402,-0.0259488 -0.0439921,-0.0164961 -0.0841496,-0.040622 -0.116866,-0.0745984 -0.0314134,-0.0326102 -0.053874,-0.0710669 -0.0678386,-0.114142 -0.0145748,-0.0449331 -0.0206969,-0.0919409 -0.0206969,-0.139087 0,-0.0753071 0.0104094,-0.150252 0.0353425,-0.221492 0.0227677,-0.0650472 0.0564724,-0.124614 0.103197,-0.17548 0.0464409,-0.0505551 0.102736,-0.0883701 0.166016,-0.11478 0.0699646,-0.0292047 0.145209,-0.0407835 0.220728,-0.0407835zm-1.1578 0.59785c0.00167323,0.0118268 0.00472047,0.0235039 0.00997244,0.0334567 0.00762598,0.0144488 0.0178661,0.0265 0.0313386,0.0357598 0.0146102,0.0100472 0.0312362,0.0160433 0.0485906,0.0192717 0.0227205,0.00422441 0.0459567,0.00590551 0.0690512,0.00590551 0.0350118,0 0.0694843,-0.00543701 0.102232,-0.0180354 0.032185,-0.012378 0.0598898,-0.0323504 0.0838071,-0.0569764l0.0218937 -0.0262677 0.202299 0.0911457 -0.0391575 0.047878c-0.0478031,0.0586654 -0.10598,0.105429 -0.175756,0.135252 -0.0687165,0.0293622 -0.141583,0.0424803 -0.216154,0.0424803 -0.0501969,0 -0.100957,-0.00491339 -0.149563,-0.0178346 -0.0435354,-0.0115709 -0.0842402,-0.0306614 -0.118925,-0.0596772 -0.0342992,-0.0286772 -0.0594134,-0.0648543 -0.0765748,-0.106039 -0.0197362,-0.0473661 -0.0263504,-0.0999961 -0.0263504,-0.150992 0,-0.0738858 0.0101614,-0.147051 0.032685,-0.217508 0.0214016,-0.0669606 0.0541496,-0.128555 0.0993583,-0.182453 0.0453346,-0.0540591 0.101051,-0.0957047 0.164906,-0.125685 0.0705669,-0.0331378 0.147567,-0.046122 0.22513,-0.046122 0.0410669,0 0.0818976,0.00466535 0.121783,0.0144961 0.0381614,0.00939764 0.0744843,0.0245157 0.106874,0.046937 0.0322047,0.0222953 0.0574331,0.051315 0.0759016,0.0858583 0.0209803,0.039248 0.0283858,0.0838307 0.0283858,0.127945 0,0.0506417 -0.00872441,0.102776 -0.035752,0.146421 -0.0238622,0.038563 -0.0561772,0.0690748 -0.0953661,0.0918898 -0.0414646,0.0241299 -0.0872638,0.0396732 -0.134165,0.0491575 -0.0507638,0.0102677 -0.10224,0.0166024 -0.153811,0.0197638l-0.202634 0.0139724zm0.0313898 -0.217681l0.185441 -0.0116654c0.0222835,-0.00106299 0.0445039,-0.0034685 0.0665433,-0.0068937 0.0198937,-0.00309843 0.0394764,-0.00843307 0.0577992,-0.0168504 0.0148937,-0.00684252 0.0277402,-0.0163386 0.0379882,-0.0291457 0.00985827,-0.0123307 0.0126654,-0.0283661 0.0126654,-0.0437756 0,-0.00879528 -0.00145276,-0.018374 -0.00775197,-0.0249882 -0.00800787,-0.00840551 -0.0178307,-0.0141929 -0.0286772,-0.0181732 -0.0140512,-0.00514961 -0.0287087,-0.00818898 -0.0436063,-0.00950394 -0.0150748,-0.00133071 -0.030311,-0.0022874 -0.0454488,-0.0022874 -0.060126,0 -0.115126,0.0158543 -0.160264,0.0564252 -0.0336929,0.0302874 -0.0582087,0.066126 -0.074689,0.106858zm-1.95401 0.28002l0.268909 0c0.0563307,0 0.112504,-0.0114724 0.158224,-0.0460276 0.0430276,-0.0325236 0.0765079,-0.0732835 0.101217,-0.12124 0.0269803,-0.052374 0.0443071,-0.108681 0.0539843,-0.166705 0.00977559,-0.0586929 0.0156142,-0.118264 0.0156142,-0.177799 0,-0.0283189 -0.00242913,-0.0567126 -0.00818898,-0.0844606 -0.00472047,-0.022752 -0.0130906,-0.0443346 -0.0264567,-0.0634331 -0.0130079,-0.0185709 -0.0311575,-0.0317717 -0.0515079,-0.0413504 -0.0276732,-0.0130157 -0.0620079,-0.016378 -0.0922205,-0.016378 -0.14678,0 -0.293563,0 -0.440343,0l0.140024 0.0185236 -0.119256 0.69887z"/>
 </g>
</svg>
